<svg 
 xmlns="http://www.w3.org/2000/svg"
 xmlns:xlink="http://www.w3.org/1999/xlink"
 width="959px" height="324px">
<defs>
<linearGradient id="PSgrad_0" x1="0%" x2="99.939%" y1="3.49%" y2="0%">
  <stop offset="46%" stop-color="rgb(255,255,255)" stop-opacity="1" />
  <stop offset="100%" stop-color="rgb(208,251,255)" stop-opacity="1" />
</linearGradient>
<linearGradient id="PSgrad_1" x1="0%" x2="17.365%" y1="98.481%" y2="0%">
  <stop offset="1%" stop-color="rgb(1,108,253)" stop-opacity="1" />
  <stop offset="100%" stop-color="rgb(3,255,252)" stop-opacity="1" />
</linearGradient>
<linearGradient id="PSgrad_2" x1="0%" x2="37.461%" y1="0%" y2="92.718%">
  <stop offset="1%" stop-color="rgb(1,108,253)" stop-opacity="1" />
  <stop offset="100%" stop-color="rgb(3,255,252)" stop-opacity="1" />
</linearGradient>
<filter filterUnits="userSpaceOnUse" id="Filter_0" x="585px" y="36px" width="222px" height="288px"  >
                <feOffset in="SourceAlpha" dx="0.401" dy="22.996" />
                <feGaussianBlur result="blurOut" stdDeviation="5.657" />
                <feFlood flood-color="rgb(0, 0, 0)" result="floodOut" />
                <feComposite operator="atop" in="floodOut" in2="blurOut" />
                <feComponentTransfer><feFuncA type="linear" slope="0.46"/></feComponentTransfer>
                <feMerge>
    <feMergeNode/>
    <feMergeNode in="SourceGraphic"/>
  </feMerge>
            </filter>
<linearGradient id="PSgrad_3" x1="0%" x2="90.631%" y1="42.262%" y2="0%">
  <stop offset="46%" stop-color="rgb(255,255,255)" stop-opacity="1" />
  <stop offset="100%" stop-color="rgb(191,250,255)" stop-opacity="1" />
</linearGradient>

</defs>
<text kerning="auto" font-family="Adobe Heiti Std" fill="rgb(0, 0, 0)" transform="matrix( 11.9441842684142, 0, -0.84227130541672, 11.9441842684142,41.0558110813474, 262.799574500985)" font-size="26px"><tspan font-size="26px" font-family="YouSheBiaoTiHei" fill="#000000">&#36828;&#28010;</tspan></text>
<text kerning="auto" font-family="Adobe Heiti Std" fill="url(#PSgrad_0)" transform="matrix( 11.9441842684142, 0, -0.84227130541672, 11.9441842684142,41.0558110813474, 262.799574500985)" font-size="26px"><tspan font-size="26px" font-family="YouSheBiaoTiHei" fill="#000000">&#36828;&#28010;</tspan></text>
<path fill-rule="evenodd"  fill="rgb(23, 37, 82)"
 d="M792.000,46.000 L729.000,46.000 L770.000,267.000 L827.000,267.000 L792.000,46.000 Z"/>
<path fill="url(#PSgrad_1)"
 d="M792.000,46.000 L729.000,46.000 L770.000,267.000 L827.000,267.000 L792.000,46.000 Z"/>
<path fill-rule="evenodd"  fill="rgb(0, 0, 0)"
 d="M854.000,164.000 C854.000,164.000 898.661,166.556 915.000,148.000 L915.000,268.000 L854.000,268.000 L854.000,164.000 Z"/>
<path fill="url(#PSgrad_2)"
 d="M854.000,164.000 C854.000,164.000 898.661,166.556 915.000,148.000 L915.000,268.000 L854.000,268.000 L854.000,164.000 Z"/>
<g filter="url(#Filter_0)">
<path fill-rule="evenodd"  fill="rgb(0, 0, 0)"
 d="M710.000,46.000 L773.000,46.000 L681.000,267.000 L618.000,267.000 L710.000,46.000 Z"/>
</g>
<path fill="url(#PSgrad_2)"
 d="M710.000,46.000 L773.000,46.000 L681.000,267.000 L618.000,267.000 L710.000,46.000 Z"/>
<path fill-rule="evenodd"  fill="rgb(190, 190, 190)"
 d="M641.000,224.000 C641.000,224.000 796.144,85.358 867.000,72.000 C867.000,72.000 901.524,67.271 914.302,91.668 C914.167,90.920 936.647,137.475 882.000,154.000 C882.000,154.000 869.163,155.984 848.000,158.000 C826.837,160.016 725.300,162.005 641.000,224.000 Z"/>
<path fill="url(#PSgrad_3)"
 d="M641.000,224.000 C641.000,224.000 796.144,85.358 867.000,72.000 C867.000,72.000 901.524,67.271 914.302,91.668 C914.167,90.920 936.647,137.475 882.000,154.000 C882.000,154.000 869.163,155.984 848.000,158.000 C826.837,160.016 725.300,162.005 641.000,224.000 Z"/>
</svg>
